<?xml version="1.0" encoding="UTF-8"?>
<!-- Generator: Adobe Illustrator 21.0.0, SVG Export Plug-In . SVG Version: 6.00 Build 0)  -->
<svg version="1.1" id="layer-1" xmlns="http://www.w3.org/2000/svg" xmlns:xlink="http://www.w3.org/1999/xlink" x="0px" y="0px" viewBox="0 0 500 500" style="enable-background:new 0 0 500 500;" xml:space="preserve">
<style type="text/css">
	.lte-svg-fill-main{fill:#48BFF1;}
</style>
<path class="lte-svg-fill-main" d="M129.6,484.2c26.5-5.1,50.3-20.2,73.6-35c58.4-37.2,116.7-74.4,175.1-111.7c22.9-14.6,46.2-29.6,63.6-52  c24-30.9,34.5-75,27.6-116.2c-6.9-41.2-31-78.7-63.6-98.8c-37.7-23.2-82.1-22.7-124.3-28.2c-38.4-5.1-76.8-15.7-115.2-12.5  C128,33.1,88,53.6,72.7,93.6c-12.3,32.2-6.4,69.7,0.9,104.4c7.3,34.6,15.8,70.9,8.1,105c-5.2,23.1-17.5,43-27,64.1  c-9.6,21.1-16.7,45.7-10.6,68.8c5,19,18.6,34.4,34.5,42.5C94.6,486.3,112.6,487.5,129.6,484.2z"/>
</svg>